<?xml version="1.0" encoding="utf-8"?>
<!-- Generator: Adobe Illustrator 27.7.0, SVG Export Plug-In . SVG Version: 6.00 Build 0)  -->
<svg version="1.1" id="Layer_1" xmlns="http://www.w3.org/2000/svg" xmlns:xlink="http://www.w3.org/1999/xlink" x="0px" y="0px"
	 viewBox="0 0 249.57 196.52" style="enable-background:new 0 0 249.57 196.52;" xml:space="preserve">
<style type="text/css">
	.st0{fill:#ED1C24;stroke:#ED1C24;stroke-miterlimit:10;}
	.st1{fill:#FFFFFF;}
	.st2{fill:none;stroke:#FFFFFF;stroke-miterlimit:10;}
</style>
<g>
	<ellipse class="st0" cx="126.05" cy="101.79" rx="115.56" ry="84.76"/>
	<g>
		<path class="st1" d="M187.34,158.61c0,0-0.81,0.5-2.34,1.42c-0.75,0.48-1.72,1.01-2.86,1.64c-1.13,0.65-2.45,1.33-3.94,2.08
			c-1.48,0.79-3.18,1.51-5,2.37c-1.86,0.78-3.86,1.65-6.05,2.44c-4.36,1.63-9.38,3.22-14.97,4.53c-5.58,1.32-11.73,2.36-18.28,2.95
			c-6.55,0.6-13.5,0.73-20.67,0.31c-7.17-0.43-14.55-1.42-21.9-3.15c-7.35-1.72-14.68-4.09-21.71-7.2
			c-7-3.15-13.76-6.92-19.82-11.49c-3.07-2.23-5.89-4.74-8.6-7.29c-2.62-2.64-5.14-5.34-7.32-8.25c-2.17-2.9-4.15-5.89-5.77-8.99
			c-0.86-1.52-1.55-3.11-2.27-4.66c-0.37-0.77-0.62-1.59-0.94-2.37c-0.28-0.79-0.63-1.56-0.84-2.37
			c-2.04-6.35-2.95-12.65-2.82-18.47c0.02-0.72,0.05-1.42,0.07-2.12c0.06-0.71,0.11-1.42,0.16-2.11c0.16-1.38,0.32-2.72,0.56-4.02
			c0.46-2.6,1.05-5.04,1.77-7.27c1.4-4.49,3.2-8.18,4.84-11.1c1.66-2.92,3.16-5.08,4.22-6.53c1.09-1.42,1.68-2.18,1.68-2.18
			l0.16,0.12c0,0-0.54,0.79-1.55,2.26c-0.97,1.5-2.39,3.7-3.89,6.66c-1.48,2.96-3.12,6.66-4.36,11.1
			c-1.26,4.43-2.09,9.57-2.08,15.24c-0.02,5.62,0.97,11.73,3.06,17.82c1.09,3.03,2.37,6.09,4.01,9.06c1.58,3,3.51,5.88,5.64,8.69
			c2.1,2.83,4.53,5.48,7.07,8.08c2.63,2.5,5.35,5,8.33,7.22c5.88,4.56,12.48,8.34,19.34,11.54c6.9,3.13,14.12,5.55,21.37,7.32
			c7.25,1.78,14.56,2.83,21.66,3.33c7.1,0.5,14.01,0.42,20.52-0.09c6.51-0.51,12.63-1.46,18.2-2.69c5.57-1.23,10.59-2.75,14.95-4.32
			c2.19-0.76,4.19-1.6,6.05-2.36c1.83-0.83,3.54-1.53,5.02-2.3c1.5-0.73,2.83-1.39,3.96-2.03c1.14-0.61,2.11-1.13,2.87-1.6
			c1.54-0.91,2.36-1.39,2.36-1.39L187.34,158.61z"/>
	</g>
</g>
<g>
	<path class="st1" d="M46.54,61.45c0.3-0.52,0.61-1.06,0.9-1.62c0.68-1.3,1.33-2.73,1.86-4.24c0.18-0.5,0.34-1.02,0.49-1.54
		c0.27-0.96,0.49-1.94,0.64-2.95c0.73-4.86,2.16-9.3,3.76-12.65c-1.13,1.72-4.09,5.75-8.36,8.42c-3.68,2.3-8.35,6.51-9.44,10.8
		c-0.61,2.4-0.31,4.52,0.4,7.11c2.32,0.58,4.57,1.42,5.99,1.99C43.6,65.81,45.08,63.93,46.54,61.45z"/>
	<path class="st1" d="M59.81,72.04c-1.56,0.58-15-3.56-15.89-3.83c-0.03-0.01-0.05-0.01-0.05-0.01s-0.31-0.14-0.82-0.35
		c-0.3-0.12-0.66-0.27-1.09-0.44c-1.27-0.49-3.04-1.13-4.87-1.62c-0.32-0.09-0.65-0.17-0.98-0.24c-0.32-0.07-0.64-0.14-0.96-0.21
		c-1.89-0.36-3.68-0.46-4.88,0.02c-2.27,0.91-3.58,3.27-3.89,5.85c-0.34,2.92,0.61,6.12,2.91,7.84c2.36,1.76,5.26,1.82,7.98,1.53
		C45.41,79.73,52.82,74.61,59.81,72.04z"/>
	<path class="st1" d="M75.55,62.77c-3-0.94-7.22-2.67-10.6-4.12c-0.43-0.19-0.85-0.37-1.26-0.54c-0.18-0.08-0.36-0.16-0.53-0.23
		c-0.21-0.09-0.45-0.2-0.72-0.31c-1.01-0.42-2.4-0.95-3.88-1.42c-0.37-0.12-0.75-0.23-1.13-0.34c-0.36-0.1-0.72-0.19-1.07-0.28
		c-1.99-0.48-3.89-0.69-5.01-0.24c-0.03,0.01-0.06,0.03-0.09,0.04c-0.44,0.19-0.84,0.45-1.19,0.79c-0.51,1.43-1.12,2.78-1.76,4.02
		c-0.06,0.62-0.05,1.23,0.03,1.82c0.23,1.8,1.04,3.39,2.29,4.32c2.01,1.5,4.52,1.47,6.72,1.24C63.67,66.85,70.05,64.76,75.55,62.77z
		"/>
	<path class="st1" d="M94.94,54.69c-2.96-1.12-7.26-3.3-10.96-5.28c-0.34-0.15-0.77-0.33-1.25-0.53c-0.47-0.19-0.99-0.39-1.55-0.59
		c-0.43-0.16-0.88-0.31-1.35-0.46c-0.42-0.14-0.84-0.27-1.27-0.39c-2.28-0.66-4.65-1.09-6.08-0.7c-0.82,2.62-2.08,4.98-3.29,6.89
		c0.25,1.75,1.06,3.28,2.27,4.19c2.01,1.5,4.52,1.47,6.72,1.24C84.48,58.41,89.63,56.64,94.94,54.69z"/>
	<path class="st1" d="M64.99,57.68c0,0,0.23-0.24,0.61-0.69c0.48-0.56,1.19-1.44,1.98-2.57c0.23-0.33,0.47-0.68,0.7-1.04
		c0.28-0.42,0.55-0.87,0.83-1.34c0.83-1.41,1.63-3.02,2.25-4.75c0.15-0.41,0.29-0.83,0.41-1.26c0.1-0.34,0.19-0.69,0.27-1.05
		c0.21-0.89,0.36-1.81,0.43-2.73c0.47-6.34,2.75-11.96,4.91-14.69c-1.57,1.07-3.38,2.24-3.38,2.24s-2.98,5.19-8.35,8.6
		c-3.45,2.19-8.6,6.53-9.44,10.79c-0.32,1.64-0.12,3.1,0.36,4.55c0.11,0.34,0.24,0.68,0.38,1.02c0.36,0.09,0.72,0.19,1.07,0.29
		c2.91,0.85,5.44,1.99,5.44,1.99s0.09,0.04,0.24,0.1c0.25,0.11,0.68,0.3,1.26,0.54L64.99,57.68z"/>
	<polygon class="st1" points="121.31,47.29 121.31,47.29 121.31,47.29 	"/>
	<path class="st1" d="M120.08,45.67c-3.16-0.3-6.16-1.86-9.26-2.59c-1.07-0.25-2.14-0.49-3.2-0.69c-0.08-0.01-0.16-0.03-0.23-0.04
		c-0.56-0.1-1.12-0.2-1.68-0.28c-0.61-0.09-1.21-0.17-1.81-0.23c-0.21-0.02-0.41-0.04-0.61-0.06c-0.66-0.06-1.33-0.11-1.99-0.13
		c-1.23-0.05-2.45-0.03-3.67,0.07c-0.39,0.03-0.79,0.07-1.18,0.12c-0.34,0.04-0.68,0.09-1.02,0.15c-0.75,0.12-1.49,0.29-2.23,0.48
		c-1.32,2.06-2.49,3.77-3.03,4.27c-0.25,0.23-0.49,0.44-0.71,0.63c-0.27,0.23-0.51,0.43-0.71,0.6c-0.28,0.23-0.48,0.38-0.6,0.47
		c0.39,1.3,1.44,2.28,2.48,2.65c1.44,0.51,3.07,0.23,4.66-0.04l0.08-0.01c8.11-1.39,16.39-2.12,24.61-2.18
		c2.88-0.02,66.41-3.21,72.77-4.47C192.92,44.34,135.14,47.08,120.08,45.67z"/>
	<path class="st1" d="M120.36,37.56c-0.27-0.1-0.55-0.19-0.82-0.28l-1.3,0.54l-7.91,3.29l-0.56,0.23l-0.89,0.37
		c0.66,0.14,1.32,0.28,1.97,0.44c0.94-0.09,1.59-0.18,1.59-0.18c0.38-0.02,0.76-0.04,1.14-0.06c34.5-1.82,43.03,3.48,76.02-9.52
		C158.79,43.33,153.27,39.91,120.36,37.56z"/>
	<path class="st1" d="M95.35,40.15c0.11,0.3,0.26,0.59,0.43,0.86c0.33-0.05,0.65-0.09,0.98-0.12c1.11-0.12,2.24-0.17,3.36-0.16
		c0.48,0,0.95,0.01,1.43,0.04c0.64,0.03,1.29,0.08,1.94,0.14c0.69,0.07,1.38,0.15,2.07,0.25c0.57,0.08,1.13,0.17,1.7,0.27
		c0.5-0.21,1.01-0.42,1.51-0.63c2.66-1.11,5.31-2.21,7.97-3.32c0.47-0.2,0.95-0.39,1.42-0.59c0.44-0.18,0.88-0.37,1.32-0.55
		c0.91-0.38,1.82-0.76,2.73-1.14c4.6-1.92,10.24-1.53,15.06-0.87c5.09,0.69,10.29,0.52,15.34-0.46c3.46-0.67,6.86-1.73,10.09-3.14
		c1.62-0.71,3.24-1.46,4.76-2.36c1.37-0.81,3.23-1.84,3.88-3.35c-0.31,0.71-12.65,8.69-28.13,8.66c-5.74-0.01-11.2-1.9-16.94-1.95
		c-0.25,0-0.49,0-0.74-0.01c-4.12-0.04-8.24-0.07-12.36-0.08c-0.83,0-1.67,0.16-2.48,0.1c-0.97-0.07-1.94-0.2-2.92-0.25
		c-1.93-0.09-3.89,0-5.77,0.57c-1.24,0.38-2.43,0.97-3.54,1.74c-0.65,1.1-1.94,3.26-3.33,5.52C95.19,39.6,95.25,39.88,95.35,40.15z"
		/>
	<path class="st1" d="M87.52,47.77c0.04-0.03,0.2-0.15,0.45-0.35c0.07-0.05,0.14-0.11,0.21-0.17c0.2-0.16,0.43-0.36,0.69-0.58
		c0.21-0.19,0.44-0.39,0.69-0.62c0.38-0.35,1.21-1.53,2.3-3.2c1.02-1.56,2.26-3.55,3.57-5.7c0.28-0.46,0.57-0.93,0.85-1.41
		c4.16-6.91,8.61-14.8,8.43-15.3c-0.31-0.86-27.58,14.38-28.85,19.09c-0.3,1.12-0.24,2.16,0.03,3.14c0.25,0.89,0.67,1.73,1.16,2.53
		c0.14,0.24,0.29,0.47,0.44,0.7c0.03,0.04,0.1,0.15,0.21,0.3c0.02,0.03,0.05,0.07,0.07,0.1c0.44,0.11,0.88,0.23,1.31,0.36
		c0.45,0.13,0.89,0.27,1.31,0.41c0.28,0.09,0.55,0.19,0.82,0.28c0.58,0.21,1.11,0.41,1.56,0.59c0.74,0.29,1.27,0.52,1.47,0.61
		l1.35-0.3l1.79-0.39L87.52,47.77z"/>
</g>
<g>
	<path class="st1" d="M74.28,70.32h4.81c1.02,0,1.87,0.11,2.57,0.34c0.7,0.23,1.25,0.54,1.68,0.95c0.42,0.41,0.73,0.88,0.91,1.43
		c0.19,0.55,0.28,1.14,0.28,1.78c0,0.64-0.09,1.24-0.28,1.78s-0.49,1.02-0.91,1.43c-0.42,0.41-0.98,0.72-1.68,0.95
		c-0.7,0.23-1.55,0.34-2.57,0.34h-3.68v6.64h-1.13V70.32z M79.42,78.27c1.31,0,2.29-0.29,2.93-0.88c0.64-0.59,0.96-1.44,0.96-2.57
		c0-1.13-0.32-1.98-0.96-2.57c-0.64-0.59-1.62-0.88-2.93-0.88h-4.01v6.9H79.42z"/>
	<path class="st1" d="M87.86,70.32h1.13v15.64h-1.13V70.32z"/>
	<path class="st1" d="M93.02,70.32h9.38v1.06h-8.25v5.91h6.45v1.06h-6.45v6.57h8.86v1.06h-9.99V70.32z"/>
	<path class="st1" d="M106.08,70.32h1.13v8.16l7.69-8.16h1.38l-5.91,6.31l6.71,9.33h-1.34l-6.19-8.49l-2.34,2.51v5.98h-1.13V70.32z"
		/>
	<path class="st1" d="M124.42,70.32h1.13l6.4,15.64h-1.29l-2.04-5.04h-7.36l-2.02,5.04h-1.22L124.42,70.32z M128.2,79.86l-3.26-8.11
		l-3.26,8.11H128.2z"/>
	<path class="st1" d="M133.85,70.32h4.71c1.02,0,1.88,0.11,2.58,0.33c0.7,0.22,1.27,0.53,1.71,0.93c0.44,0.4,0.75,0.87,0.95,1.41
		c0.2,0.54,0.29,1.13,0.29,1.77c0,1.02-0.26,1.92-0.79,2.71c-0.53,0.79-1.36,1.32-2.5,1.58l3.73,6.92h-1.29l-3.63-6.78h-4.64v6.78
		h-1.12V70.32z M139.03,78.13c2.58,0,3.87-1.13,3.87-3.38c0-1.13-0.34-1.97-1.02-2.53c-0.68-0.56-1.68-0.84-2.99-0.84h-3.92v6.75
		H139.03z"/>
	<path class="st1" d="M147.24,70.32h1.17l10.04,13.95V70.32h1.1v15.64h-1.17l-10.04-13.77v13.77h-1.1V70.32z"/>
	<path class="st1" d="M162.41,70.32h1.13v15.64h-1.13V70.32z"/>
	<path class="st1" d="M171.84,70.32h1.13l6.4,15.64h-1.29l-2.04-5.04h-7.37l-2.02,5.04h-1.22L171.84,70.32z M175.61,79.86
		l-3.26-8.11l-3.26,8.11H175.61z"/>
</g>
<g>
	<path class="st1" d="M39.27,128.73v-2.66l3.19-0.52v-23.18l-3.15-0.6v-2.6h6.16c0.65,0,1.24-0.01,1.77-0.04
		c0.53-0.03,1.04-0.05,1.52-0.09c0.48-0.03,0.96-0.06,1.43-0.09c0.47-0.03,0.97-0.04,1.51-0.04c3.72,0,6.44,0.54,8.18,1.61
		c1.74,1.08,2.6,2.77,2.6,5.07c0,1.09-0.16,2.06-0.48,2.91c-0.32,0.85-0.75,1.59-1.31,2.21s-1.22,1.13-1.99,1.52
		s-1.61,0.65-2.52,0.8c1.17,0.01,2.26,0.18,3.28,0.5s1.91,0.77,2.67,1.36c0.76,0.59,1.35,1.3,1.79,2.14
		c0.43,0.83,0.65,1.78,0.65,2.83c0,1.18-0.19,2.31-0.56,3.41c-0.38,1.09-1.03,2.07-1.95,2.91c-0.93,0.85-2.17,1.52-3.73,2.03
		c-1.56,0.5-3.53,0.76-5.9,0.76c-0.52,0-1.02-0.01-1.51-0.04c-0.49-0.03-1-0.05-1.54-0.08c-0.54-0.03-1.13-0.05-1.77-0.08
		c-0.63-0.03-1.37-0.04-2.21-0.04H39.27z M48.6,101.73v10.22c0.18,0.03,0.42,0.05,0.72,0.07c0.3,0.02,0.61,0.03,0.92,0.04
		c0.32,0.01,0.63,0.01,0.94,0.01c0.31,0,0.58,0,0.8,0c0.8,0,1.49-0.12,2.05-0.36c0.56-0.24,1.02-0.59,1.37-1.06s0.6-1.05,0.75-1.74
		c0.15-0.69,0.22-1.49,0.22-2.4c0-0.84-0.09-1.58-0.26-2.21c-0.17-0.63-0.46-1.15-0.86-1.55c-0.4-0.41-0.93-0.71-1.59-0.91
		s-1.46-0.3-2.41-0.3c-0.56,0-1.08,0.03-1.58,0.08C49.16,101.66,48.81,101.7,48.6,101.73z M48.6,114.8v11.13
		c0.12,0.06,0.29,0.12,0.52,0.17s0.49,0.08,0.77,0.11c0.28,0.03,0.57,0.05,0.88,0.06c0.31,0.01,0.6,0.02,0.87,0.02
		c1.17,0,2.16-0.13,2.97-0.4c0.82-0.27,1.48-0.65,2-1.15c0.52-0.5,0.9-1.11,1.14-1.84c0.24-0.73,0.36-1.55,0.36-2.47
		c0-1.04-0.11-1.92-0.34-2.64c-0.23-0.73-0.58-1.31-1.07-1.77c-0.49-0.45-1.11-0.78-1.87-0.99c-0.76-0.21-1.66-0.31-2.71-0.31
		c-0.23,0-0.52,0-0.86,0c-0.34,0-0.69,0-1.04,0.01s-0.67,0.02-0.97,0.03C48.96,114.78,48.74,114.79,48.6,114.8z"/>
	<path class="st1" d="M64.66,128.73v-2.6l2.84-0.37V110.8l-2.62-0.84v-2.91l7.13-0.95h0.1l1.42,0.84v18.81l2.82,0.39v2.6H64.66z
		 M69.83,102.82c-0.45,0-0.86-0.08-1.21-0.25c-0.36-0.17-0.65-0.39-0.89-0.67c-0.24-0.28-0.42-0.61-0.54-0.99s-0.18-0.79-0.18-1.21
		c0-0.5,0.07-0.98,0.2-1.43c0.14-0.45,0.35-0.84,0.63-1.18c0.28-0.34,0.64-0.6,1.06-0.8C69.31,96.09,69.8,96,70.36,96h0.02
		c0.53,0,0.99,0.09,1.37,0.26s0.7,0.41,0.96,0.7s0.45,0.62,0.57,1c0.12,0.38,0.18,0.77,0.18,1.19c0,0.52-0.07,1-0.21,1.45
		s-0.36,0.84-0.65,1.17c-0.29,0.33-0.67,0.59-1.13,0.78c-0.46,0.19-1,0.28-1.62,0.28H69.83z"/>
	<path class="st1" d="M86.59,129.18c-1.83,0-3.4-0.29-4.71-0.85c-1.31-0.57-2.4-1.36-3.24-2.38c-0.85-1.02-1.47-2.23-1.88-3.64
		s-0.6-2.95-0.6-4.62c0-1.81,0.25-3.44,0.77-4.87s1.23-2.65,2.17-3.65c0.93-1,2.05-1.77,3.36-2.3c1.31-0.53,2.76-0.8,4.35-0.8
		c5.38,0,8.18,2.62,8.41,7.87c0.03,0.89,0.02,1.7-0.01,2.42s-0.1,1.32-0.2,1.82H82.32c0.06,1.28,0.25,2.38,0.56,3.28
		c0.31,0.91,0.72,1.65,1.22,2.21s1.1,0.98,1.8,1.24c0.69,0.26,1.45,0.39,2.28,0.39c0.66,0,1.28-0.05,1.85-0.16
		c0.57-0.1,1.1-0.23,1.58-0.39c0.49-0.16,0.93-0.33,1.32-0.52c0.4-0.19,0.74-0.38,1.02-0.56l1.01,2.35
		c-0.32,0.34-0.77,0.69-1.35,1.06c-0.58,0.37-1.24,0.71-1.98,1.02c-0.75,0.31-1.55,0.57-2.41,0.78
		C88.37,129.07,87.49,129.18,86.59,129.18z M86.07,108.66c-0.5,0-0.97,0.09-1.41,0.27c-0.43,0.18-0.82,0.52-1.15,1.03
		c-0.33,0.51-0.6,1.21-0.82,2.11c-0.21,0.9-0.35,2.06-0.4,3.49h6.97c0-0.06,0-0.16,0.01-0.27c0.01-0.12,0.01-0.24,0.02-0.37
		s0.01-0.25,0.01-0.37s0-0.2,0-0.25c0-0.66-0.04-1.33-0.14-2.01c-0.09-0.68-0.26-1.29-0.5-1.82c-0.24-0.53-0.57-0.96-0.99-1.3
		C87.27,108.83,86.73,108.66,86.07,108.66z"/>
	<path class="st1" d="M94.15,126.77l10.55-14.86l2.49-2.72l-7.03,0.29l-0.83,3.69h-3.36v-6.7h17.45l0.91,1.86l-10.26,15l-2.45,2.72
		l8.16-0.47l1.55-4.2l3.21,0.31l-0.58,7.03H95.12L94.15,126.77z"/>
	<path class="st1" d="M119.46,138.64c-0.26,0-0.54-0.01-0.85-0.02s-0.62-0.03-0.91-0.06s-0.57-0.06-0.81-0.09
		c-0.24-0.03-0.41-0.07-0.51-0.11v-4.76c0.19,0.09,0.58,0.2,1.16,0.32s1.25,0.18,2.03,0.18c0.39,0,0.81-0.05,1.27-0.14
		c0.46-0.09,0.94-0.32,1.43-0.68c0.49-0.36,0.99-0.9,1.5-1.62c0.5-0.72,1-1.7,1.48-2.94h-3.5l-6.99-19.23l-1.77-0.54v-2.49h11.25
		v2.47l-2.93,0.56l3.71,11.52l1.52,5.28l1.32-5.28l2.95-11.52l-2.53-0.56v-2.47h8.59v2.49l-1.79,0.54c-0.38,1.18-0.77,2.45-1.2,3.82
		c-0.42,1.37-0.84,2.75-1.27,4.14c-0.43,1.39-0.85,2.75-1.26,4.07c-0.41,1.32-0.79,2.53-1.13,3.61c-0.34,1.09-0.63,2.01-0.88,2.78
		c-0.25,0.76-0.44,1.28-0.55,1.55c-1.1,2.99-2.4,5.27-3.88,6.83C123.39,137.86,121.58,138.64,119.46,138.64z"/>
	<path class="st1" d="M136.3,128.73v-2.6l2.51-0.39V110.8l-2.64-0.82v-2.93l6.95-0.95h0.1l1.03,0.84v2.31
		c0.43-0.39,0.93-0.77,1.52-1.15s1.21-0.71,1.89-0.99c0.68-0.29,1.4-0.52,2.15-0.69c0.75-0.17,1.51-0.26,2.27-0.26
		c1.24,0,2.28,0.16,3.12,0.49s1.5,0.84,1.99,1.55s0.84,1.63,1.05,2.75c0.21,1.12,0.31,2.47,0.31,4.05v10.76l2.76,0.37v2.6h-10.94
		v-2.6l2.12-0.37v-10.84c0-0.89-0.05-1.67-0.14-2.32c-0.09-0.65-0.26-1.19-0.5-1.6c-0.24-0.41-0.57-0.72-0.99-0.92
		c-0.42-0.2-0.96-0.3-1.62-0.3c-0.44,0-0.87,0.05-1.3,0.15s-0.83,0.22-1.21,0.38c-0.38,0.16-0.73,0.33-1.05,0.51
		c-0.32,0.19-0.59,0.37-0.83,0.55v14.38l2.6,0.39v2.6H136.3z"/>
	<path class="st1" d="M161.61,127.49v-5.46h3.57l1.01,3.03c0.12,0.17,0.29,0.34,0.53,0.51c0.24,0.17,0.52,0.32,0.85,0.45
		s0.7,0.24,1.12,0.32c0.41,0.08,0.85,0.13,1.3,0.13c0.65,0,1.17-0.08,1.58-0.23c0.41-0.16,0.74-0.35,0.98-0.59
		c0.25-0.24,0.41-0.51,0.5-0.82c0.09-0.3,0.14-0.6,0.14-0.88c0-0.54-0.14-1.01-0.42-1.41c-0.28-0.4-0.67-0.76-1.19-1.09
		c-0.51-0.33-1.13-0.65-1.86-0.96c-0.73-0.31-1.53-0.65-2.41-1.01c-0.89-0.36-1.7-0.77-2.41-1.21c-0.71-0.45-1.32-0.95-1.82-1.51
		c-0.5-0.56-0.88-1.18-1.16-1.87c-0.27-0.69-0.41-1.46-0.41-2.31c0-0.92,0.19-1.77,0.57-2.55s0.95-1.46,1.7-2.04
		c0.75-0.58,1.68-1.03,2.8-1.36c1.11-0.33,2.4-0.5,3.87-0.5c0.86,0,1.62,0.05,2.28,0.16s1.27,0.22,1.82,0.36
		c0.54,0.14,1.04,0.28,1.5,0.43c0.45,0.15,0.89,0.26,1.32,0.34v5.36l-3.38-0.06l-0.91-2.58c-0.18-0.3-0.52-0.59-1.03-0.86
		c-0.51-0.28-1.15-0.42-1.92-0.44c-0.58,0-1.07,0.06-1.47,0.19s-0.71,0.3-0.95,0.52c-0.24,0.22-0.41,0.46-0.51,0.73
		c-0.1,0.27-0.16,0.53-0.16,0.81c0,0.67,0.17,1.23,0.52,1.66s0.79,0.8,1.32,1.1s1.11,0.56,1.75,0.79s1.24,0.47,1.81,0.73
		c0.86,0.38,1.67,0.77,2.45,1.19s1.47,0.91,2.07,1.47c0.6,0.56,1.08,1.2,1.44,1.93c0.36,0.73,0.53,1.6,0.53,2.61
		c0,0.95-0.18,1.82-0.55,2.62c-0.37,0.8-0.93,1.5-1.67,2.1c-0.75,0.6-1.68,1.06-2.8,1.4c-1.12,0.34-2.43,0.5-3.93,0.5
		c-1.02,0-1.96-0.07-2.81-0.21c-0.85-0.14-1.62-0.31-2.31-0.5c-0.69-0.19-1.31-0.38-1.86-0.56
		C162.49,127.72,162.01,127.58,161.61,127.49z"/>
	<path class="st1" d="M179,128.73v-2.6l2.53-0.37V99.8l-2.82-0.49v-2.27l7.52-0.95h0.06l1.22,0.91v17.39l-0.1,3.01l7.56-7.77
		l-3.03-0.52v-2.64h10.96v2.64l-3.61,0.7l-4.82,4.41l7.5,11.52l2.39,0.39v2.6h-11v-2.6l1.96-0.43l-4.76-8.12l-3.15,3.03l0.1,2.31
		v2.82l2.66,0.39v2.6H179z"/>
	<path class="st1" d="M202.8,128.73v-2.6l2.84-0.37V110.8l-2.62-0.84v-2.91l7.13-0.95h0.1l1.42,0.84v18.81l2.82,0.39v2.6H202.8z
		 M207.97,102.82c-0.45,0-0.86-0.08-1.21-0.25c-0.36-0.17-0.65-0.39-0.89-0.67c-0.24-0.28-0.42-0.61-0.54-0.99s-0.18-0.79-0.18-1.21
		c0-0.5,0.07-0.98,0.2-1.43c0.14-0.45,0.35-0.84,0.63-1.18c0.28-0.34,0.64-0.6,1.06-0.8c0.42-0.19,0.91-0.29,1.47-0.29h0.02
		c0.53,0,0.99,0.09,1.37,0.26s0.7,0.41,0.96,0.7s0.45,0.62,0.57,1c0.12,0.38,0.18,0.77,0.18,1.19c0,0.52-0.07,1-0.21,1.45
		s-0.36,0.84-0.65,1.17c-0.29,0.33-0.67,0.59-1.13,0.78c-0.46,0.19-1,0.28-1.62,0.28H207.97z"/>
</g>
<line class="st2" x1="149.2" y1="143.47" x2="64.48" y2="143.47"/>
<line class="st2" x1="187.62" y1="143.47" x2="147.55" y2="143.47"/>
<path class="st1" d="M108.41,90.94c1.61,0.82,2.09,2.58,1.17,4.38c-0.92,1.8-2.62,2.44-4.23,1.62c-1.69-0.86-2.2-2.64-1.28-4.44
	C104.99,90.71,106.72,90.08,108.41,90.94z"/>
<polygon class="st1" points="145.85,100.26 149.2,93.74 151.88,92.07 154.04,94.11 150.87,97.09 "/>
</svg>
